<svg width="24" height="24" viewBox="0 0 24 24" fill="none" xmlns="http://www.w3.org/2000/svg">
<g clip-path="url(#clip0_9_3745)">
<path d="M23.209 5.35425C23.1112 4.7009 22.7827 4.10419 22.2828 3.67229C21.7829 3.24038 21.1448 3.00188 20.4842 3H3.51772C2.8571 3.00188 2.21903 3.24038 1.71915 3.67229C1.21928 4.10419 0.890696 4.7009 0.792969 5.35425L12.001 12.6068L23.209 5.35425Z" fill="#40189D"/>
<path d="M12.4082 14.13C12.2869 14.2084 12.1455 14.2502 12.001 14.2502C11.8565 14.2502 11.7151 14.2084 11.5937 14.13L0.750977 7.11446V18.2332C0.751771 18.9668 1.04352 19.67 1.56222 20.1887C2.08091 20.7074 2.78418 20.9992 3.51773 21H20.4842C21.2178 20.9992 21.921 20.7074 22.4397 20.1887C22.9584 19.67 23.2502 18.9668 23.251 18.2332V7.11371L12.4082 14.13Z" fill="#40189D"/>
</g>
<defs>
<clipPath id="clip0_9_3745">
<rect width="24" height="24" fill="white" transform="translate(0.000976562)"/>
</clipPath>
</defs>
</svg>
