<svg width="16" height="16" viewBox="0 0 16 16" fill="none" xmlns="http://www.w3.org/2000/svg">
<g clip-path="url(#clip0_9_5000)">
<path fill-rule="evenodd" clip-rule="evenodd" d="M5.7833 8.38412C5.73908 8.34526 5.6369 8.25503 5.60056 8.22091C4.71448 7.38823 4.13399 6.08427 4.13399 4.61477C4.13399 2.04881 5.89976 0.015625 8.00041 0.015625C10.101 0.015625 11.8668 2.04881 11.8668 4.61477C11.8668 6.08302 11.2873 7.38604 10.4036 8.2201C10.3664 8.25519 10.2623 8.34726 10.2186 8.38571L10.2148 8.4495C10.2396 8.83225 10.4968 9.16391 10.866 9.281C13.6105 10.149 15.6003 12.223 15.9344 14.6811C15.9803 15.0091 15.882 15.3408 15.6647 15.5906C15.4474 15.8405 15.1326 15.984 14.8016 15.984C12.3793 15.9844 3.62162 15.9844 1.19932 15.9844C0.868089 15.9844 0.55308 15.8409 0.335723 15.591C0.118366 15.341 0.0199645 15.0091 0.0656565 14.6833C0.400565 12.2229 2.39027 10.149 5.13438 9.28106C5.50491 9.16357 5.7624 8.83056 5.78611 8.44653L5.7833 8.38412Z" fill="white"/>
</g>
<defs>
<clipPath id="clip0_9_5000">
<rect width="16" height="16" fill="white"/>
</clipPath>
</defs>
</svg>
