<svg width="24" height="24" viewBox="0 0 24 24" fill="none" xmlns="http://www.w3.org/2000/svg">
<g clip-path="url(#clip0_1_401)">
<path d="M20.3955 10.8038C19.9733 10.8038 19.5767 10.8742 19.2057 11.0213V4.79104H12.9883C13.1226 4.42004 13.193 4.01066 13.193 3.58849C13.193 1.60554 11.5874 0 9.60447 0C7.62152 0 6.01598 1.60554 6.01598 3.58849C6.01598 4.01066 6.08634 4.41365 6.22067 4.79104H0.00958252V11.7441C0.642845 11.1684 1.48719 10.8102 2.4083 10.8102C4.39125 10.8102 5.99679 12.4158 5.99679 14.3987C5.99679 16.3817 4.39125 17.9872 2.4083 17.9872C1.48719 17.9872 0.642845 17.629 0.00958252 17.0533V24H19.2121V17.7697C19.5831 17.9104 19.9797 17.9872 20.4019 17.9872C22.3912 17.9872 23.9904 16.3817 23.9904 14.3987C23.9904 12.4158 22.3912 10.8038 20.3955 10.8038Z" fill="#40189D"/>
</g>
<defs>
<clipPath id="clip0_1_401">
<rect width="24" height="24" fill="white"/>
</clipPath>
</defs>
</svg>
