<svg width="28" height="28" viewBox="0 0 28 28" fill="none" xmlns="http://www.w3.org/2000/svg">
<g clip-path="url(#clip0_1_530)">
<path d="M23.7948 12.6045C23.3023 12.6045 22.8396 12.6866 22.4068 12.8582V5.58955H15.153C15.3097 5.15672 15.3918 4.6791 15.3918 4.18657C15.3918 1.87313 13.5187 0 11.2053 0C8.89183 0 7.01869 1.87313 7.01869 4.18657C7.01869 4.6791 7.10078 5.14925 7.2575 5.58955H0.0112305V13.7015C0.750036 13.0299 1.73511 12.6119 2.80974 12.6119C5.12317 12.6119 6.9963 14.4851 6.9963 16.7985C6.9963 19.1119 5.12317 20.9851 2.80974 20.9851C1.73511 20.9851 0.750036 20.5672 0.0112305 19.8955V28H22.4142V20.7313C22.8471 20.8955 23.3097 20.9851 23.8023 20.9851C26.1232 20.9851 27.9888 19.1119 27.9888 16.7985C27.9888 14.4851 26.1232 12.6045 23.7948 12.6045Z" fill="#BFBFBF"/>
</g>
<defs>
<clipPath id="clip0_1_530">
<rect width="28" height="28" fill="white"/>
</clipPath>
</defs>
</svg>
