<svg width="28" height="28" viewBox="0 0 28 28" fill="none" xmlns="http://www.w3.org/2000/svg">
<g clip-path="url(#clip0_9_397)">
<path d="M22.5677 26.5202C22.8078 26.5202 23.0447 26.6115 23.2249 26.7856C24.3769 27.8979 26.0572 28.2683 27.551 27.8047C26.5896 25.802 26.4564 23.5075 27.2014 21.383C28.1259 18.7398 28.3576 16.0905 27.3054 13.4334C26.381 11.0992 24.5971 9.15994 22.3394 8.05408C22.4783 8.79455 22.5483 9.54903 22.5483 10.3115C22.5484 13.5478 21.3039 16.5916 19.0444 18.8823C16.7846 21.1733 13.7553 22.4615 10.5147 22.5097C9.91264 22.5191 9.31328 22.4837 8.7207 22.4056C10.5017 25.5274 13.8606 27.5606 17.5516 27.6153C19.1662 27.6403 20.7166 27.302 22.1604 26.6125C22.2904 26.5503 22.4296 26.5202 22.5677 26.5202Z" fill="#3E4954"/>
<path d="M10.5409 0.00236249C4.79219 -0.111786 0.0134043 4.53885 -0.00045711 10.2863C-0.00385315 11.6906 0.270256 13.052 0.814315 14.3331C0.822216 14.3517 0.829563 14.3706 0.836216 14.3897C1.5812 16.5142 1.44806 18.8086 0.486632 20.8114C1.98054 21.2748 3.66068 20.9046 4.8127 19.7922C5.09651 19.518 5.52116 19.449 5.87726 19.6192C7.32085 20.3087 8.87138 20.648 10.486 20.6221C16.1897 20.5374 20.6576 16.0085 20.6575 10.3117C20.6576 4.73921 16.1192 0.114501 10.5409 0.00236249ZM4.81894 11.8517C3.99301 11.8517 3.32343 11.1832 3.32343 10.3587C3.32343 9.53414 3.99301 8.86568 4.81894 8.86568C5.64487 8.86568 6.31444 9.53414 6.31444 10.3587C6.31437 11.1832 5.64487 11.8517 4.81894 11.8517ZM10.3286 11.8517C9.50263 11.8517 8.83306 11.1832 8.83306 10.3587C8.83306 9.53414 9.50263 8.86568 10.3286 8.86568C11.1545 8.86568 11.8241 9.53414 11.8241 10.3587C11.8241 11.1832 11.1545 11.8517 10.3286 11.8517ZM15.8383 11.8517C15.0123 11.8517 14.3427 11.1832 14.3427 10.3587C14.3427 9.53414 15.0123 8.86568 15.8383 8.86568C16.6642 8.86568 17.3338 9.53414 17.3338 10.3587C17.3338 11.1832 16.6642 11.8517 15.8383 11.8517Z" fill="#3E4954"/>
</g>
<defs>
<clipPath id="clip0_9_397">
<rect width="28" height="28" fill="white"/>
</clipPath>
</defs>
</svg>
