<svg width="24" height="24" viewBox="0 0 24 24" fill="none" xmlns="http://www.w3.org/2000/svg">
<path d="M6 7.5H3C2.17275 7.5 1.5 6.82687 1.5 6V3C1.5 2.17313 2.17275 1.5 3 1.5H6C6.82725 1.5 7.5 2.17313 7.5 3V6C7.5 6.82687 6.82725 7.5 6 7.5ZM3 3V6H6.00113L6 3H3ZM22.5 4.5C22.5 4.08544 22.1642 3.75 21.75 3.75H9.75C9.33581 3.75 9 4.08544 9 4.5C9 4.91456 9.33581 5.25 9.75 5.25H21.75C22.1642 5.25 22.5 4.91456 22.5 4.5ZM6 15H3C2.17275 15 1.5 14.3269 1.5 13.5V10.5C1.5 9.67313 2.17275 9 3 9H6C6.82725 9 7.5 9.67313 7.5 10.5V13.5C7.5 14.3269 6.82725 15 6 15ZM3 10.5V13.5H6.00113L6 10.5H3ZM22.5 12C22.5 11.5854 22.1642 11.25 21.75 11.25H9.75C9.33581 11.25 9 11.5854 9 12C9 12.4146 9.33581 12.75 9.75 12.75H21.75C22.1642 12.75 22.5 12.4146 22.5 12ZM6 22.5H3C2.17275 22.5 1.5 21.8269 1.5 21V18C1.5 17.1731 2.17275 16.5 3 16.5H6C6.82725 16.5 7.5 17.1731 7.5 18V21C7.5 21.8269 6.82725 22.5 6 22.5ZM3 18V21H6.00113L6 18H3ZM22.5 19.5C22.5 19.0854 22.1642 18.75 21.75 18.75H9.75C9.33581 18.75 9 19.0854 9 19.5C9 19.9146 9.33581 20.25 9.75 20.25H21.75C22.1642 20.25 22.5 19.9146 22.5 19.5Z" fill="#40189D"/>
</svg>
