<svg width="28" height="28" viewBox="0 0 28 28" fill="none" xmlns="http://www.w3.org/2000/svg">
<g clip-path="url(#clip0_1_544)">
<path d="M19.6209 4.51614H3.54235C2.95864 4.51614 2.48389 4.9909 2.48389 5.57461V26.9415C2.48389 27.5253 2.95864 28 3.54235 28H19.6209C20.204 28 20.6788 27.5253 20.6788 26.9415V5.57461C20.6788 4.9909 20.204 4.51614 19.6209 4.51614ZM16.0323 19.4194H7.45163C6.9526 19.4194 6.5484 19.0152 6.5484 18.5161C6.5484 18.0171 6.9526 17.6129 7.45163 17.6129H16.0323C16.5313 17.6129 16.9355 18.0171 16.9355 18.5161C16.9355 19.0152 16.5313 19.4194 16.0323 19.4194ZM16.0323 15.8065H7.45163C6.9526 15.8065 6.5484 15.4023 6.5484 14.9032C6.5484 14.4042 6.9526 14 7.45163 14H16.0323C16.5313 14 16.9355 14.4042 16.9355 14.9032C16.9355 15.4023 16.5313 15.8065 16.0323 15.8065ZM16.0323 12.1936H7.45163C6.9526 12.1936 6.5484 11.7894 6.5484 11.2903C6.5484 10.7913 6.9526 10.3871 7.45163 10.3871H16.0323C16.5313 10.3871 16.9355 10.7913 16.9355 11.2903C16.9355 11.7894 16.5313 12.1936 16.0323 12.1936Z" fill="#BFBFBF"/>
<path d="M25.5161 2.70968V22.5806C25.5161 23.9445 24.4187 25.2903 22.4853 25.2903V5.5746C22.4853 3.99452 21.2004 2.70968 19.6209 2.70968H5.51477C5.51477 1.2154 6.80243 0 8.38477 0H22.6461C24.2285 0 25.5161 1.2154 25.5161 2.70968Z" fill="#BFBFBF"/>
</g>
<defs>
<clipPath id="clip0_1_544">
<rect width="28" height="28" fill="white"/>
</clipPath>
</defs>
</svg>
