<svg width="24" height="24" viewBox="0 0 24 24" fill="none" xmlns="http://www.w3.org/2000/svg">
<path d="M10.001 11.9999C10.001 13.1045 10.8964 13.9999 12.001 13.9999C13.1055 13.9999 14.001 13.1045 14.001 11.9999C14.001 10.8954 13.1055 9.99994 12.001 9.99994C10.8964 9.99994 10.001 10.8954 10.001 11.9999Z" fill="black"/>
<path d="M10.001 4.00006C10.001 5.10463 10.8964 6.00006 12.001 6.00006C13.1055 6.00006 14.001 5.10463 14.001 4.00006C14.001 2.89549 13.1055 2.00006 12.001 2.00006C10.8964 2.00006 10.001 2.89549 10.001 4.00006Z" fill="black"/>
<path d="M10.001 20C10.001 21.1046 10.8964 22 12.001 22C13.1055 22 14.001 21.1046 14.001 20C14.001 18.8954 13.1055 18 12.001 18C10.8964 18 10.001 18.8954 10.001 20Z" fill="black"/>
</svg>
