<svg width="46" height="46" viewBox="0 0 46 46" fill="none" xmlns="http://www.w3.org/2000/svg">
<rect width="46" height="46" rx="23" fill="#FFBE17"/>
<path d="M19.1205 30C18.9969 30.0004 18.8747 29.9732 18.7629 29.9203C18.6512 29.8674 18.5526 29.7902 18.4745 29.6944C18.3964 29.5985 18.3407 29.4865 18.3115 29.3663C18.2822 29.2462 18.2802 29.121 18.3055 29L18.9705 25.11L16.1455 22.365C16.0348 22.2569 15.9566 22.12 15.9196 21.9697C15.8826 21.8195 15.8883 21.6619 15.9362 21.5147C15.984 21.3675 16.072 21.2367 16.1903 21.1369C16.3086 21.0371 16.4524 20.9724 16.6055 20.95L20.5005 20.385L22.2455 16.845C22.3128 16.7031 22.419 16.5831 22.5518 16.4991C22.6845 16.4151 22.8384 16.3705 22.9955 16.3705C23.1526 16.3705 23.3065 16.4151 23.4393 16.4991C23.572 16.5831 23.6782 16.7031 23.7455 16.845L25.5005 20.385L29.4055 20.955C29.5586 20.9774 29.7024 21.0421 29.8207 21.1419C29.939 21.2417 30.027 21.3725 30.0749 21.5197C30.1227 21.6669 30.1284 21.8245 30.0914 21.9747C30.0545 22.125 29.9762 22.2619 29.8655 22.37L27.0405 25.125L27.6955 29C27.7216 29.1518 27.7049 29.3078 27.6474 29.4507C27.5898 29.5936 27.4937 29.7176 27.3697 29.8089C27.2457 29.9002 27.0987 29.9552 26.9452 29.9678C26.7917 29.9804 26.6377 29.95 26.5005 29.88L23.0005 28.045L19.5005 29.88C19.3856 29.9505 19.2551 29.9917 19.1205 30ZM17.0955 21.89L19.7355 24.465C19.8325 24.5586 19.9051 24.6745 19.9469 24.8027C19.9888 24.9308 19.9986 25.0672 19.9755 25.2L19.3505 28.83L22.6155 27.115C22.7343 27.0528 22.8664 27.0203 23.0005 27.0203C23.1346 27.0203 23.2667 27.0528 23.3855 27.115L26.6505 28.83L26.0255 25.195C26.0024 25.0622 26.0122 24.9258 26.0541 24.7977C26.0959 24.6695 26.1685 24.5536 26.2655 24.46L28.9055 21.885L25.2555 21.355C25.1222 21.3356 24.9957 21.284 24.8868 21.2047C24.7779 21.1255 24.69 21.0209 24.6305 20.9L23.0005 17.6L21.3705 20.905C21.3111 21.0259 21.2231 21.1305 21.1142 21.2097C21.0053 21.289 20.8788 21.3406 20.7455 21.36L17.0955 21.89Z" fill="white"/>
<path d="M23.2958 17.065L25.0808 20.685C25.1042 20.7325 25.1387 20.7736 25.1814 20.8049C25.224 20.8362 25.2736 20.8569 25.3258 20.865L29.3258 21.445C29.3845 21.4561 29.4391 21.4828 29.4838 21.5225C29.5285 21.5621 29.5616 21.6131 29.5796 21.6701C29.5975 21.7271 29.5997 21.7879 29.5858 21.846C29.572 21.9041 29.5426 21.9573 29.5008 22L26.6108 24.815C26.5728 24.8521 26.5443 24.8979 26.5278 24.9484C26.5113 24.9989 26.5072 25.0526 26.5158 25.105L27.1958 29.105C27.2088 29.1685 27.2029 29.2343 27.1787 29.2944C27.1546 29.3545 27.1133 29.4062 27.06 29.443C27.0067 29.4797 26.9437 29.5 26.879 29.5013C26.8142 29.5025 26.7505 29.4847 26.6958 29.45L23.1258 27.57C23.0787 27.5455 23.0264 27.5327 22.9733 27.5327C22.9202 27.5327 22.8679 27.5455 22.8208 27.57L19.2758 29.435C19.2211 29.4697 19.1574 29.4875 19.0927 29.4863C19.0279 29.485 18.965 29.4647 18.9117 29.428C18.8584 29.3912 18.8171 29.3395 18.7929 29.2794C18.7688 29.2193 18.7628 29.1535 18.7758 29.09L19.4558 25.09C19.4645 25.0376 19.4604 24.9839 19.4439 24.9334C19.4273 24.8829 19.3988 24.8371 19.3608 24.8L16.5008 22C16.4576 21.9571 16.4271 21.9031 16.4127 21.844C16.3983 21.7848 16.4005 21.7228 16.4192 21.6648C16.4378 21.6069 16.4721 21.5552 16.5183 21.5155C16.5645 21.4758 16.6207 21.4497 16.6808 21.44L20.6808 20.86C20.7331 20.8519 20.7827 20.8312 20.8253 20.7999C20.8679 20.7686 20.9024 20.7275 20.9258 20.68L22.7108 17.06C22.7392 17.0068 22.7816 16.9624 22.8334 16.9316C22.8853 16.9008 22.9446 16.8848 23.0048 16.8853C23.0651 16.8858 23.1241 16.9028 23.1754 16.9345C23.2267 16.9662 23.2684 17.0113 23.2958 17.065Z" fill="white"/>
</svg>
