<svg width="24" height="24" viewBox="0 0 24 24" fill="none" xmlns="http://www.w3.org/2000/svg">
<g clip-path="url(#clip0_9_3739)">
<path d="M22.5823 18.7063L22.4584 18.4384C22.0866 17.5599 17.5071 16.2137 17.1276 16.1921L16.8239 16.2154C16.1995 16.3441 15.5117 16.9358 14.0678 18.2155C12.4412 17.4627 10.2133 15.4564 9.16306 14.2713C8.02578 12.9901 6.60698 10.8353 6.09708 9.22554C7.74397 7.76602 8.43008 7.13248 8.47375 6.42777C8.49704 6.04826 7.71153 1.34306 6.88409 0.865892L6.63622 0.709468C6.10948 0.370138 5.31332 -0.142754 4.42861 0.0372475C4.21496 0.0821268 4.00572 0.165882 3.81042 0.286625C3.21702 0.661684 1.76394 1.67004 1.10087 2.98848C0.691868 3.80943 0.50596 11.3015 6.12187 17.6348C10.857 22.9778 16.5317 23.9581 18.7321 24H19.0221C19.2524 23.9951 19.4296 23.979 19.5385 23.9566L19.5679 23.9519L19.6594 23.9239C21.0475 23.4267 22.2234 22.1035 22.6649 21.5582C23.4809 20.5483 22.8984 19.3491 22.5823 18.7063Z" fill="#40189D"/>
</g>
<defs>
<clipPath id="clip0_9_3739">
<rect width="24" height="24" fill="white" transform="translate(0.000976562)"/>
</clipPath>
</defs>
</svg>
