<svg width="24" height="24" viewBox="0 0 24 24" fill="none" xmlns="http://www.w3.org/2000/svg">
<path d="M12 1C5.9225 1 1 5.9225 1 12C1 14.42 1.77 16.6475 3.09 18.4625L1.5775 22.45L5.95 21.185C7.6825 22.34 9.7725 23 12 23C18.0775 23 23 18.0775 23 12C23 5.9225 18.0775 1 12 1ZM17.8575 16.565L16.675 17.72C15.4375 18.9575 12.165 17.61 9.2775 14.695C6.39 11.8075 5.0975 8.535 6.2525 7.325L7.435 6.1425C7.875 5.7025 8.6175 5.7025 9.085 6.1425L10.8175 7.875C11.4225 8.48 11.175 9.525 10.3775 9.7725C9.8275 9.965 9.4425 10.57 9.635 11.12C9.9375 12.4125 11.615 14.0075 12.8525 14.31C13.4025 14.4475 14.035 14.1175 14.2 13.5675C14.4475 12.77 15.4925 12.5225 16.0975 13.1275L17.83 14.86C18.27 15.3275 18.27 16.07 17.8575 16.565Z" fill="#40189D"/>
</svg>
